<svg id="ondemand_video-24px_1_" data-name="ondemand_video-24px (1)" xmlns="http://www.w3.org/2000/svg" width="24" height="24" viewBox="0 0 24 24">
  <path id="Path_10966" data-name="Path 10966" d="M0,0H24V24H0Z" fill="none"/>
  <path id="Path_10967" data-name="Path 10967" d="M21,3H3A2.006,2.006,0,0,0,1,5V17a2.006,2.006,0,0,0,2,2H21a2,2,0,0,0,1.99-2L23,5A2,2,0,0,0,21,3ZM20,17H4a1,1,0,0,1-1-1V6A1,1,0,0,1,4,5H20a1,1,0,0,1,1,1V16A1,1,0,0,1,20,17Zm-5.52-5.13L10.5,14.15A1.006,1.006,0,0,1,9,13.28V8.72a1,1,0,0,1,1.5-.87l3.98,2.28A1,1,0,0,1,14.48,11.87Z" transform="translate(0 1)" fill="#fff"/>
</svg>
