<svg xmlns="http://www.w3.org/2000/svg" width="474.082" height="961.593" viewBox="0 0 474.082 961.593"><defs><style>.a,.b{fill:#fff;}.b{fill-rule:evenodd;}</style></defs><g transform="translate(-3508 -2408.463)"><rect class="a" width="456" height="923" rx="40" transform="translate(3517.04 2428)"/><g transform="translate(3504.483 2408.463)"><g transform="translate(0 0)"><g transform="translate(0 0)"><path class="b" d="M456.226,479.489q0-197.84,0-395.678c0-2.373.031-4.75-.058-7.12a49.735,49.735,0,0,0-49.3-48.067c-13.66-.134-27.322-.049-40.983-.019-5.644.012-247.027,0-247.027,0s-27.327-.253-40.982.052c-18.112.4-32.083,8.555-41.86,23.753-5.725,8.9-7.559,18.824-7.557,29.286q.051,397.236.028,794.472a27.864,27.864,0,0,0,.041,4c.686,4.68,1,9.487,2.331,13.987a49.454,49.454,0,0,0,47.694,35.283q68.825.1,137.65.022c63.256,0,126.513.137,189.769-.078,21.519-.073,36.87-10.581,46.128-29.9,3.468-7.236,4.16-15.035,4.157-22.989q-.066-198.507-.031-397.014Zm21.341-257.308V336.2q0,274.862.033,549.723c0,17.078-4.808,32.488-15.192,46-12.7,16.526-29.443,26.345-50.241,28.955a78.785,78.785,0,0,1-9.751.679q-161.718.053-323.437.019c-35.4-.009-65.37-23.586-73.322-57.92a85.142,85.142,0,0,1-1.984-18.513c-.2-29.525-.09-59.052-.09-88.578q0-217.664,0-435.327c0-1.484-.059-80.878-.059-80.878s.032-59.206.013-85.322-.018-26.706-.018-26.706l.07-42.6s-.18-34.128.046-51.188c.278-21.016,7.911-39.07,23.116-53.667C40.966,7.234,58.142.122,77.817.1Q240.649-.1,403.48.071c36.542.032,67.946,27.391,73.2,63.428a86.959,86.959,0,0,1,.846,12.4q.086,70.329.037,140.658Z" transform="translate(0 0)"/></g></g></g></g></svg>